Godzilla.Destroy.All.Monsters.1968.(DD5.1).XviD-NvadR 
http://www.imdb.com/title/tt0063172/

This colorful, no-holds-barred clash of the titans -- directed 
by Inoshiro Honda (one of monsterdom's foremost experts) -- features 
nearly all of Japan's ground-pounding superstars, including Godzilla 
(and son), Mothra, Rodan and Ghidorah... and even tosses in Anzilla, 
Baragon, Goro, Wendra, Spiga and Varan for the explosive climax. The 
setup involves a race of evil aliens known as Kilaaks, who release 
the world's population of giant monsters from their quarantine on 
Monster Island, employing powerful mind-control devices on the 
monsters as part of their master plan for subjugating humanity. 

When the secret equipment used for this purpose is discovered beneath 
Mount Fuji and destroyed, the aliens make a last-ditch attempt at 
reclaiming their foothold by summoning three-headed Ghidorah from 
space -- but by then, Godzilla and the other city-stompers have 
rallied together to defend the Earth from the alien menace. 
Released in Japan as Kaiju Soshingeki, this is one of Honda's more 
colorful monster extravaganzas, and a must-see for fans of the genre.

--------------- SCREENSHOTS ---------------- 
http://www.postimg.com/41000/photo-40125.jpg
 
http://www.postimg.com/41000/photo-40126.jpg
 
http://www.postimg.com/41000/photo-40127.jpg
 
http://www.postimg.com/41000/photo-40128.jpg
 
http://www.postimg.com/41000/photo-40129.jpg
 
http://www.postimg.com/41000/photo-40130.jpg
--------------------------------------------

   General

      Complete name : Godzilla.Destroy.All.Monsters.1968.(DD5.1).XviD-NvadR.avi
      Format : AVI
      Format/Info : Audio Video Interleave
      File size : 1.10 GiB
      Duration : 1h 28mn
      Overall bit rate : 1 774 Kbps
      Writing application : VirtualDubMod 1.5.10.2 (build 2542/release)
      Writing library : VirtualDubMod build 2542/release

   Video 

      Format : MPEG-4 Visual
      Format profile : AdvancedSimple@L5
      Format settings, BVOP : Yes
      Format settings, QPel : No
      Format settings, GMC : No warppoints
      Format settings, Matrix : Default (H.263)
      Muxing mode : Packed bitstream
      Codec ID : XVID
      Codec ID/Hint : XviD
      Duration : 1h 28mn
      Bit rate : 1 316 Kbps
      Width : 640 pixels
      Height : 272 pixels
      Display aspect ratio : 2.35:1
      Frame rate : 23.976 fps
      Resolution : 24 bits
      Colorimetry : 4:2:0
      Scan type : Progressive
      Bits/(Pixel*Frame) : 0.315
      Stream size : 835 MiB (74%)
      Writing library : XviD 64

   Audio (Untouched)
 
      Audio Language : Japanese
      Subtitles : English (Hardcoded)
      Other Subs : None
      Format : AC-3
      Format/Info : Audio Coding 3
      Codec ID : 2000
      Duration : 1h 28mn
      Bit rate mode : Constant
      Bit rate : 448 Kbps
      Channel(s) : 6 channels
      Channel positions : Front: L C R, Surround: L R, LFE
      Sampling rate : 48.0 KHz
      Stream size : 284 MiB (25%)
      Alignment : Aligned on interleaves
      Interleave, duration : 42 ms (1.00 video frame)
      Interleave, preload duration : 512 ms

   Source

      Region 2 (Japan) DVD9 (NTSC) 720 x 480 29.970 fps 2.35:1
      Color AC3 Digital Dolby 6CH Stereo 448 Kb/s 48.0 KHz

   Note

      All black borders removed.  All Production Logo's Removed.
      File sized increased due to 6 channel soundtrack.

------------- TORRENT STATS --------------- 
http://torrent-stats.info/8c98/c7e06fb0.png